<svg width="20" height="20" viewBox="0 0 20 20" fill="none" xmlns="http://www.w3.org/2000/svg">
<g clip-path="url(#clip0_1_89)">
<path d="M7.85001 18.7242C7.74681 18.7238 7.64506 18.6998 7.55251 18.6542C7.44021 18.5989 7.34572 18.5132 7.27984 18.4068C7.21397 18.3004 7.17937 18.1776 7.18001 18.0525V16.1917H3.62418C3.26834 16.1914 2.92712 16.05 2.67542 15.7985C2.42373 15.547 2.28212 15.2058 2.28168 14.85V2.61749C2.28212 2.26158 2.4237 1.92036 2.67537 1.66869C2.92705 1.41702 3.26826 1.27543 3.62418 1.27499H16.3742C16.73 1.27544 17.0711 1.41705 17.3227 1.66874C17.5742 1.92044 17.7156 2.26165 17.7158 2.61749V14.85C17.7154 15.2057 17.5739 15.5467 17.3224 15.7982C17.0709 16.0497 16.7299 16.1912 16.3742 16.1917H11.3975L8.25668 18.5875C8.13959 18.6761 7.99682 18.724 7.85001 18.7242ZM3.62418 2.61749V14.85H7.85001C8.02729 14.85 8.19737 14.9201 8.32319 15.0449C8.44901 15.1698 8.52036 15.3394 8.52168 15.5167V16.695L10.7658 14.9858C10.8825 14.8964 11.0255 14.8481 11.1725 14.8483H16.3758V2.61749H3.62418Z" fill="#2B2A35"/>
<path d="M13.3558 9.49667H6.64416C6.46624 9.49667 6.29562 9.42599 6.16981 9.30019C6.044 9.17438 5.97333 9.00375 5.97333 8.82583V7.81917H14.0267V8.82583C14.0267 9.00375 13.956 9.17438 13.8302 9.30019C13.7044 9.42599 13.5337 9.49667 13.3558 9.49667Z" fill="#00D8A0"/>
</g>
<defs>
<clipPath id="clip0_1_89">
<rect width="20" height="20" fill="white"/>
</clipPath>
</defs>
</svg>
