<svg width="19" height="20" viewBox="0 0 19 20" fill="none" xmlns="http://www.w3.org/2000/svg">
<g clip-path="url(#clip0_1_103)">
<path fill-rule="evenodd" clip-rule="evenodd" d="M3.50493 6.26347C3.71691 6.00011 4.09157 5.9675 4.34177 6.19064L9.55961 10.8443L14.6518 6.19534C14.8996 5.96917 15.2746 5.99723 15.4894 6.25799C15.7043 6.51876 15.6776 6.91349 15.4299 7.13965L9.56864 12.4907L3.57412 7.14435C3.32392 6.92121 3.29295 6.52683 3.50493 6.26347Z" fill="#00D8A0"/>
<path fill-rule="evenodd" clip-rule="evenodd" d="M2.80127 2.7925H16.1986C17.1555 2.7925 17.9312 3.60902 17.9312 4.61625V15.385C17.9312 16.3922 17.1555 17.2087 16.1986 17.2087H2.80127C1.84441 17.2087 1.06871 16.3922 1.06871 15.385V4.61625C1.06871 3.60902 1.84441 2.7925 2.80127 2.7925ZM2.80127 4.0425H16.1986C16.4997 4.0425 16.7437 4.29937 16.7437 4.61625V15.385C16.7437 15.7019 16.4997 15.9587 16.1986 15.9587H2.80127C2.50024 15.9587 2.25621 15.7019 2.25621 15.385V4.61625C2.25621 4.29937 2.50024 4.0425 2.80127 4.0425Z" fill="#2B2A35"/>
</g>
<defs>
<clipPath id="clip0_1_103">
<rect width="19" height="20" fill="white"/>
</clipPath>
</defs>
</svg>
