<svg width="20" height="20" viewBox="0 0 20 20" fill="none" xmlns="http://www.w3.org/2000/svg">
<g clip-path="url(#clip0_1_88)">
<path d="M17.1692 17.7908H2.83166C2.66655 17.7908 2.50817 17.7254 2.39118 17.6089C2.2742 17.4924 2.20815 17.3343 2.20749 17.1692V2.83083C2.20771 2.66544 2.27357 2.50689 2.3906 2.39002C2.50763 2.27314 2.66626 2.2075 2.83166 2.2075H17.1692C17.3342 2.20794 17.4923 2.27381 17.6088 2.39065C17.7254 2.5075 17.7908 2.6658 17.7908 2.83083V17.1692C17.7904 17.3339 17.7247 17.4918 17.6083 17.6083C17.4918 17.7248 17.3339 17.7904 17.1692 17.7908ZM3.61082 3.61083V16.39H16.39V3.61083H3.61082Z" fill="#2B2A35"/>
<path d="M9.61001 13.43C9.56868 13.43 9.52896 13.4136 9.49974 13.3844C9.47051 13.3552 9.45416 13.3154 9.45416 13.2741V12.3393C9.45416 12.2979 9.47051 12.2582 9.49974 12.229C9.52896 12.1998 9.56868 12.1834 9.61001 12.1834H13.1934C13.2347 12.1834 13.2742 12.1998 13.3034 12.229C13.3327 12.2582 13.3492 12.2979 13.3492 12.3393V13.2741C13.3492 13.3154 13.3327 13.3552 13.3034 13.3844C13.2742 13.4136 13.2347 13.43 13.1934 13.43H9.61001ZM9.61001 10.625C9.56868 10.625 9.52896 10.6086 9.49974 10.5794C9.47051 10.5502 9.45416 10.5105 9.45416 10.4691V9.53409C9.45416 9.49276 9.47051 9.45325 9.49974 9.42402C9.52896 9.3948 9.56868 9.37824 9.61001 9.37824H13.1934C13.2347 9.37824 13.2742 9.3948 13.3034 9.42402C13.3327 9.45325 13.3492 9.49276 13.3492 9.53409V10.4691C13.349 10.5104 13.3324 10.55 13.3032 10.5792C13.2741 10.6084 13.2346 10.6248 13.1934 10.625H9.61001ZM9.61001 7.8192C9.56882 7.8192 9.52934 7.80288 9.50014 7.77383C9.47094 7.74479 9.45438 7.70536 9.45416 7.66417V6.72912C9.45438 6.68785 9.47097 6.64843 9.50014 6.61925C9.52932 6.59008 9.56874 6.57349 9.61001 6.57327H13.1934C13.2346 6.57349 13.2741 6.59008 13.3032 6.61925C13.3324 6.64843 13.349 6.68785 13.3492 6.72912V7.66417C13.349 7.70536 13.3324 7.74479 13.3032 7.77383C13.274 7.80288 13.2346 7.8192 13.1934 7.8192H9.61001Z" fill="#2B2A35"/>
<path d="M6.64918 12.805C6.64918 12.5983 6.73133 12.4001 6.87745 12.254C7.02357 12.1079 7.22174 12.0258 7.42839 12.0258C7.63504 12.0258 7.83321 12.1079 7.97934 12.254C8.12546 12.4001 8.20761 12.5983 8.20761 12.805C8.20761 13.0116 8.12546 13.2098 7.97934 13.3559C7.83321 13.502 7.63504 13.5842 7.42839 13.5842C7.22174 13.5842 7.02357 13.502 6.87745 13.3559C6.73133 13.2098 6.64918 13.0116 6.64918 12.805ZM6.64918 9.99999C6.64918 9.79335 6.73133 9.59517 6.87745 9.44905C7.02357 9.30293 7.22174 9.22078 7.42839 9.22078C7.63504 9.22078 7.83321 9.30293 7.97934 9.44905C8.12546 9.59517 8.20761 9.79335 8.20761 9.99999C8.20761 10.2066 8.12546 10.4048 7.97934 10.5509C7.83321 10.6971 7.63504 10.7792 7.42839 10.7792C7.22174 10.7792 7.02357 10.6971 6.87745 10.5509C6.73133 10.4048 6.64918 10.2066 6.64918 9.99999ZM6.64918 7.19421C6.64918 6.98756 6.73133 6.78939 6.87745 6.64326C7.02357 6.49714 7.22174 6.41499 7.42839 6.41499C7.63504 6.41499 7.83321 6.49714 7.97934 6.64326C8.12546 6.78939 8.20761 6.98756 8.20761 7.19421C8.20761 7.40086 8.12546 7.59903 7.97934 7.74515C7.83321 7.89127 7.63504 7.97342 7.42839 7.97342C7.32579 7.97343 7.22407 7.95297 7.12932 7.91361C7.03457 7.87424 6.94862 7.81664 6.87623 7.74393C6.80383 7.67123 6.74653 7.58494 6.70757 7.49003C6.66861 7.39511 6.64874 7.29335 6.64918 7.19075V7.19421Z" fill="#00D8A0"/>
</g>
<defs>
<clipPath id="clip0_1_88">
<rect width="20" height="20" fill="white"/>
</clipPath>
</defs>
</svg>
