<svg width="19" height="19" viewBox="0 0 19 19" fill="none" xmlns="http://www.w3.org/2000/svg">
<g clip-path="url(#clip0_1_104)">
<path d="M12.1243 17.7876C9.24941 17.7876 6.53241 15.7949 4.67041 12.3251C2.45454 8.19019 2.70035 3.95675 5.26654 2.033C5.94991 1.52408 6.77539 1.24173 7.62729 1.2255C7.80531 1.22505 7.98299 1.24095 8.1581 1.273C9.30997 1.49032 10.14 3.62663 10.444 4.53625C11.2076 6.81982 10.7433 7.33044 10.5913 7.49788C9.96354 7.97169 9.26176 8.33843 8.51435 8.58325C8.89309 9.59748 9.4434 10.539 10.1412 11.3668L10.165 11.3549L10.178 11.3489C10.8884 10.9156 11.6774 10.6267 12.4996 10.4987C12.5633 10.4986 12.6269 10.5041 12.6896 10.5153C14.1918 10.7884 15.84 14.1776 15.84 15.4898C15.84 16.5383 14.7083 17.2793 13.9958 17.5014C13.39 17.6904 12.759 17.7869 12.1243 17.7876ZM7.62372 2.50444C7.051 2.52474 6.49787 2.71809 6.03722 3.059C4.36166 4.313 3.57316 7.56082 5.80091 11.7159C7.40997 14.7155 9.7731 16.5063 12.122 16.5074C12.6286 16.5036 13.1318 16.4236 13.6147 16.2699C14.0897 16.1215 14.5563 15.694 14.5563 15.4838C14.5563 14.3961 13.085 11.9344 12.4806 11.7764C11.8727 11.9319 11.2895 12.1717 10.748 12.4889C10.3775 12.673 10.3003 12.711 10.1317 12.711C8.8611 12.7193 7.32804 9.3005 7.11072 8.36713C6.99197 7.83157 7.40522 7.65463 7.83985 7.47532C8.43916 7.23742 9.02436 6.96544 9.5926 6.66069C9.46539 5.14404 8.876 3.7029 7.90397 2.53175C7.81157 2.51423 7.71777 2.50509 7.62372 2.50444Z" fill="#2B2A35"/>
<path d="M14.193 7.3352L12.686 6.79251C13.0105 6.05471 13.087 5.23155 12.9039 4.4466C12.7209 3.66165 12.2881 2.95725 11.6707 2.43913L12.7015 1.21126C13.5707 1.93951 14.1843 2.92661 14.4526 4.02836C14.7209 5.13012 14.63 6.28882 14.193 7.3352Z" fill="#00D8A0"/>
</g>
<defs>
<clipPath id="clip0_1_104">
<rect width="19" height="19" fill="white"/>
</clipPath>
</defs>
</svg>
