<svg width="14" height="16" viewBox="0 0 14 16" fill="none" xmlns="http://www.w3.org/2000/svg">
<g clip-path="url(#clip0_1_91)">
<path d="M11.1243 5.20574H2.87567C2.57297 5.20574 2.27026 4.97608 2.27026 4.5933C2.27026 4.21053 2.57297 3.98086 2.87567 3.98086H11.1243C11.427 3.98086 11.7297 4.28708 11.7297 4.5933C11.7297 4.89952 11.427 5.20574 11.1243 5.20574Z" fill="#2F3136"/>
<path d="M7.79458 13.8565H6.28107V11.1005C6.28107 10.7943 6.58377 10.488 6.88647 10.488H7.18917C7.49188 10.488 7.79458 10.7943 7.79458 11.1005V13.8565Z" fill="#00D8A0"/>
<path d="M12.7892 16H1.21081C0.52973 16 0 15.4641 0 14.7751V12.2488C0 11.866 0.151351 11.5598 0.378378 11.3301L3.17838 9.1866C2.57297 8.42105 2.19459 7.50239 2.19459 6.58373C2.19459 6.20096 1.96757 2.98565 2.11892 1.68421C2.19459 0.76555 2.95135 0 3.93514 0H10.2162C11.2 0 11.9568 0.76555 12.0324 1.68421C12.1081 3.29187 12.0324 4.97608 11.9568 6.58373C11.9568 7.57895 11.5784 8.49761 10.8973 9.1866L13.6216 11.2536C13.8486 11.4833 14 11.7895 14 12.1722V14.6986C14 15.4641 13.4703 16 12.7892 16ZM3.93514 1.22488C3.63243 1.22488 3.32973 1.45455 3.32973 1.76077C3.25405 3.0622 3.40541 6.20096 3.40541 6.50718C3.40541 7.42584 3.85946 8.19139 4.46487 8.80383L4.54054 8.88038C4.76757 9.11005 4.76757 9.49282 4.46487 9.72249L1.21081 12.2488V14.7751H12.7892V12.2488L9.61081 9.79904C9.30811 9.56938 9.30811 9.1866 9.53514 8.95694C9.53514 8.95694 9.53514 8.95694 9.53514 8.88038L9.68649 8.65072C10.2919 8.11483 10.6703 7.27273 10.6703 6.43062C10.8216 4.89952 10.8216 3.29187 10.7459 1.76077C10.7459 1.45455 10.4432 1.22488 10.1405 1.22488H3.93514Z" fill="#2F3136"/>
</g>
<defs>
<clipPath id="clip0_1_91">
<rect width="14" height="16" fill="white"/>
</clipPath>
</defs>
</svg>
